<svg xmlns="http://www.w3.org/2000/svg" width="17" height="20" viewBox="0 0 17 20">
  <g id="ic_access-management-inactive" transform="translate(-116.669 -0.001)">
    <path id="Path_25375" data-name="Path 25375" d="M130.191,3.411A4.152,4.152,0,0,0,128.733.967,4.3,4.3,0,0,0,126.019,0h-5.1a4.3,4.3,0,0,0-3,1.222,4.13,4.13,0,0,0-1.246,2.945V12.5a4.118,4.118,0,0,0,.986,2.661,4.269,4.269,0,0,0,2.492,1.43,4.152,4.152,0,0,0,1.458,2.443,4.3,4.3,0,0,0,2.714.967h1.992a4.264,4.264,0,0,0,3-1.22l3.109-3.048a4.1,4.1,0,0,0,1.245-2.946V7.5a4.118,4.118,0,0,0-.986-2.661,4.269,4.269,0,0,0-2.492-1.43ZM120.069,7.5v7.346a2.542,2.542,0,0,1-1.23-.909,2.463,2.463,0,0,1-.47-1.438V4.168a2.479,2.479,0,0,1,.748-1.767,2.579,2.579,0,0,1,1.8-.733h5.1a2.58,2.58,0,0,1,1.466.461,2.5,2.5,0,0,1,.927,1.206h-4.093a4.3,4.3,0,0,0-3,1.222A4.131,4.131,0,0,0,120.069,7.5Zm1.7,8.333V7.5a2.479,2.479,0,0,1,.748-1.767,2.579,2.579,0,0,1,1.8-.733h5.1a2.579,2.579,0,0,1,1.8.733,2.479,2.479,0,0,1,.748,1.767v4.167h-2.55a4.3,4.3,0,0,0-3,1.222,4.13,4.13,0,0,0-1.246,2.945v2.5h-.85a2.579,2.579,0,0,1-1.8-.733,2.478,2.478,0,0,1-.748-1.767Zm6.345,1.768a2.58,2.58,0,0,1-1.245.665V15.834a2.478,2.478,0,0,1,.748-1.767,2.579,2.579,0,0,1,1.8-.733H131.9a2.5,2.5,0,0,1-.678,1.22Z" fill="#fff"/>
    <path id="Path_25376" data-name="Path 25376" d="M304.2,188.386h3.441a.86.86,0,1,0,0-1.72H304.2a.86.86,0,1,0,0,1.72Z" transform="translate(-179.903 -180.018)" fill="#fff"/>
    <path id="Path_25377" data-name="Path 25377" d="M307.636,258.386a.86.86,0,1,0,0-1.72H304.2a.86.86,0,1,0,0,1.72Z" transform="translate(-179.901 -247.525)" fill="#fff"/>
  </g>
</svg>
