<svg xmlns="http://www.w3.org/2000/svg" width="20" height="16" viewBox="0 0 20 16" fill="#fff">
  <g id="ic_cancel-requests_inactive" transform="translate(-83.997 -61.038)">
    <path id="Path_25544" data-name="Path 25544" d="M97.8,72.783v.859H88.254a1.162,1.162,0,0,0-.692.225l-2.244,1.7V62.327H97.8v3.908l1.321-1.453V62.143a1.128,1.128,0,0,0-1.132-1.1H85.129A1.114,1.114,0,0,0,84,62.143v13.77a1.107,1.107,0,0,0,.629,1,1.14,1.14,0,0,0,.5.123,1.262,1.262,0,0,0,.692-.225l2.433-1.882h9.73a1.127,1.127,0,0,0,1.132-1.1V71.555l-.839.921a1.289,1.289,0,0,1-.482.307Z"/>
    <path id="Path_25545" data-name="Path 25545" d="M169.8,146.961h7.5a.674.674,0,0,0,.682-.682.687.687,0,0,0-.682-.682h-7.5a.687.687,0,0,0-.682.682A.7.7,0,0,0,169.8,146.961Z" transform="translate(-81.952 -81.48)"/>
    <path id="Path_25546" data-name="Path 25546" d="M177.984,231.4a.687.687,0,0,0-.682-.682h-7.5a.687.687,0,0,0-.682.682.674.674,0,0,0,.682.682h7.5a.674.674,0,0,0,.682-.682Z" transform="translate(-81.95 -163.503)"/>
    <path id="Path_25547" data-name="Path 25547" d="M169.68,317.058a.674.674,0,0,0,.682.682h6.481l.235-1.343h-6.737a.664.664,0,0,0-.661.661Z" transform="translate(-82.485 -246.063)"/>
    <path id="Path_25548" data-name="Path 25548" d="M422.12,166.4l4-4.461,1.905,1.707-4,4.461Z" transform="translate(-325.502 -97.306)"/>
    <path id="Path_25549" data-name="Path 25549" d="M545.845,119.581l-1.322-1.194a.373.373,0,0,0-.533.021l-.789.9,1.9,1.705.789-.9a.4.4,0,0,0-.043-.533Z" transform="translate(-441.975 -55.068)"/>
    <path id="Path_25550" data-name="Path 25550" d="M385.071,299.59l1.62-.469a.464.464,0,0,0,.171-.107l.469-.512-1.9-1.706-.469.512a.383.383,0,0,0-.085.192l-.277,1.663A.381.381,0,0,0,385.071,299.59Z" transform="translate(-289.321 -227.218)"/>
  </g>
</svg>
