<svg xmlns="http://www.w3.org/2000/svg" width="20" height="20" viewBox="0 0 20 20">
  <path id="ic_chat-inactive" d="M5.736,16.328a1.253,1.253,0,0,1-1.252-1.251V13.75a.86.86,0,0,0-.859-.859A3.128,3.128,0,0,1,.5,9.766V3.124A3.128,3.128,0,0,1,3.625,0H14.25a3.128,3.128,0,0,1,3.125,3.125V9.766A3.128,3.128,0,0,1,14.25,12.89H10.875a2.842,2.842,0,0,0-2.023.838L6.619,15.962a1.247,1.247,0,0,1-.883.367ZM3.625,1.562A1.564,1.564,0,0,0,2.062,3.124V9.766a1.564,1.564,0,0,0,1.562,1.562A2.424,2.424,0,0,1,6.046,13.75v.575l1.7-1.7a4.394,4.394,0,0,1,3.128-1.3H14.25a1.564,1.564,0,0,0,1.563-1.562V3.124A1.564,1.564,0,0,0,14.25,1.562ZM15.743,19.9a1.247,1.247,0,0,0,.772-1.155V17.421a.86.86,0,0,1,.859-.859A3.128,3.128,0,0,0,20.5,13.437v-8.2a.781.781,0,0,0-1.562,0v8.2A1.564,1.564,0,0,1,17.375,15a2.424,2.424,0,0,0-2.422,2.421V18l-1.7-1.7A4.395,4.395,0,0,0,10.124,15h-.64a.781.781,0,1,0,0,1.562h.64a2.842,2.842,0,0,1,2.023.838l2.234,2.234a1.247,1.247,0,0,0,1.363.271ZM9.757,6.485a.781.781,0,1,0-.781.781A.781.781,0,0,0,9.757,6.485Zm3.125,0a.781.781,0,1,0-.781.781A.781.781,0,0,0,12.882,6.485Zm-6.25,0a.781.781,0,1,0-.781.781A.781.781,0,0,0,6.632,6.485Zm0,0" transform="translate(-0.5 0)" fill="#fff"/>
</svg>
