<svg id="ic_home-inactive" xmlns="http://www.w3.org/2000/svg" width="20" height="19" viewBox="0 0 20 19">
  <path id="Path_14777" data-name="Path 14777" d="M55.035,204.021H41.792A1.81,1.81,0,0,1,40,202.2v-9.6a.623.623,0,1,1,1.246,0v9.6a.551.551,0,0,0,.545.555H55.035a.551.551,0,0,0,.545-.555v-9.6a.623.623,0,1,1,1.246,0v9.6A1.81,1.81,0,0,1,55.035,204.021Z" transform="translate(-38.414 -185.021)" fill="#fff"/>
  <path id="Path_14778" data-name="Path 14778" d="M19.375,25.851a.618.618,0,0,1-.442-.186L11.16,17.773a1.625,1.625,0,0,0-2.32,0L1.067,25.665a.618.618,0,0,1-.884,0,.641.641,0,0,1,0-.9l7.773-7.892a2.863,2.863,0,0,1,4.088,0l7.773,7.892a.641.641,0,0,1,0,.9.618.618,0,0,1-.442.186Z" transform="translate(0 -16.017)" fill="#fff"/>
  <path id="Path_14779" data-name="Path 14779" d="M181.711,296.233h-5.077A.635.635,0,0,1,176,295.6v-5.632a1.985,1.985,0,0,1,1.983-1.983h2.38a1.985,1.985,0,0,1,1.983,1.983V295.6A.635.635,0,0,1,181.711,296.233Zm-4.442-1.269h3.807v-5a.715.715,0,0,0-.714-.714h-2.38a.715.715,0,0,0-.714.714Z" transform="translate(-169.173 -277.233)" fill="#fff"/>
</svg>
