<svg xmlns="http://www.w3.org/2000/svg" width="15" height="22" viewBox="0 0 15 22">
  <g id="ic_itinerary-inactive" transform="translate(-163.33 -11.668)">
    <path id="Path_24709" data-name="Path 24709" d="M173.408,11.668h-5.156a.928.928,0,0,0-.663.28.966.966,0,0,0-.275.676v.239h-2.578a1.368,1.368,0,0,0-.982.394,1.425,1.425,0,0,0-.424.986V32.288a1.425,1.425,0,0,0,.424.986,1.368,1.368,0,0,0,.982.394h12.188a1.368,1.368,0,0,0,.982-.394,1.425,1.425,0,0,0,.424-.986V14.243a1.425,1.425,0,0,0-.424-.986,1.368,1.368,0,0,0-.982-.394h-2.578v-.239a.966.966,0,0,0-.275-.676.928.928,0,0,0-.663-.28Zm-5.156.956h5.156v1.435h-5.156Zm8.672,1.2h0a.448.448,0,0,1,.469.423V32.288a.449.449,0,0,1-.469.423H164.736a.449.449,0,0,1-.469-.423V14.243a.448.448,0,0,1,.469-.423h2.578v.239a.966.966,0,0,0,.275.676.928.928,0,0,0,.663.28h5.156a.928.928,0,0,0,.663-.28.966.966,0,0,0,.275-.676V13.82Z" fill="#fff"/>
    <path id="Path_24710" data-name="Path 24710" d="M218.269,262.5h-1.948a.487.487,0,0,0-.487.487v1.948h0a.487.487,0,0,0,.487.487h1.948a.487.487,0,0,0,.487-.487v-1.947a.487.487,0,0,0-.487-.487Zm-.487,1.948h-.974v-.974h.974Z" transform="translate(-50.313 -240.577)" fill="#fff"/>
    <path id="Path_24711" data-name="Path 24711" d="M309.17,289.239a.487.487,0,0,0,.487.487h6.33a.487.487,0,1,0,0-.974h-6.33a.487.487,0,0,0-.487.487Z" transform="translate(-140.334 -265.735)" fill="#fff"/>
    <path id="Path_24712" data-name="Path 24712" d="M218.269,364.58h-1.948a.487.487,0,0,0-.487.487v1.948a.487.487,0,0,0,.487.487h1.948a.486.486,0,0,0,.487-.487v-1.948a.487.487,0,0,0-.487-.487Zm-.487,1.948h-.974v-.974h.974Z" transform="translate(-50.313 -338.484)" fill="#fff"/>
    <path id="Path_24713" data-name="Path 24713" d="M315.982,390.83h-6.33a.487.487,0,0,0,0,.974h6.33a.487.487,0,0,0,0-.974Z" transform="translate(-140.33 -363.631)" fill="#fff"/>
    <path id="Path_24714" data-name="Path 24714" d="M276.765,142.495l-.324.229a.487.487,0,0,0,.565.794l1.461-1.022h1.514a.487.487,0,0,0,0-.974h-4.107a.514.514,0,0,1-.465-.3l-.341-.73a.488.488,0,0,0-.886.409l.343.73a1.488,1.488,0,0,0,1.349.864Z" transform="translate(-106.473 -123.287)" fill="#fff"/>
  </g>
</svg>
