<svg id="ic_profile_inactive" xmlns="http://www.w3.org/2000/svg" width="22" height="20" viewBox="0 0 22 20">
  <g id="Ellipse_719" data-name="Ellipse 719" transform="translate(6.356)" fill="none" stroke="#fff" stroke-width="1">
    <circle cx="5.042" cy="5.042" r="5.042" stroke="none"/>
    <circle cx="5.042" cy="5.042" r="4.542" fill="none"/>
  </g>
  <g id="Path_10317" data-name="Path 10317" transform="translate(0 25.007)" fill="none">
    <path d="M0-9.614a15.964,15.964,0,0,1,11.051-4.261A16.16,16.16,0,0,1,22-9.614v4.607H0Z" stroke="none"/>
    <path d="M 10.91252040863037 -12.87590312957764 C 8.275529861450195 -12.87590312957764 5.764289855957031 -12.21527290344238 3.448579788208008 -10.91236305236816 C 2.241613388061523 -10.2332820892334 1.404201507568359 -9.546045303344727 1 -9.184168815612793 L 1 -6.007292747497559 L 21 -6.007292747497559 L 21 -9.183836936950684 C 20.01997184753418 -10.05805778503418 16.48580932617188 -12.82987880706787 11.04214000701904 -12.87536239624023 C 10.99843978881836 -12.87572288513184 10.95598030090332 -12.87590312957764 10.91252040863037 -12.87590312957764 M 10.91252136230469 -13.87590026855469 C 10.95878505706787 -13.87590026855469 11.00400352478027 -13.87571144104004 11.0505199432373 -13.87532234191895 C 17.97895050048828 -13.81744289398193 22 -9.614222526550293 22 -9.614222526550293 L 22 -5.007292747497559 L 0 -5.007292747497559 L 0 -9.614222526550293 C 0 -9.614222526550293 4.068086624145508 -13.87590026855469 10.91252136230469 -13.87590026855469 Z" stroke="none" fill="#fff"/>
  </g>
</svg>
