<svg xmlns="http://www.w3.org/2000/svg" width="21" height="20" viewBox="0 0 21 20">
  <g id="ic_settings-inactive" transform="translate(0 0)">
    <path id="Path_15262" data-name="Path 15262" d="M11.159,20H9.841a1.891,1.891,0,0,1-1.933-1.841v-.425a8.719,8.719,0,0,1-1.316-.52l-.316.3a2,2,0,0,1-2.734,0l-.932-.887a1.78,1.78,0,0,1,0-2.6l.316-.3a7.866,7.866,0,0,1-.546-1.254H1.933A1.891,1.891,0,0,1,0,10.628V9.372A1.891,1.891,0,0,1,1.933,7.531h.446a7.867,7.867,0,0,1,.546-1.254l-.316-.3a1.78,1.78,0,0,1,0-2.6l.932-.887a2,2,0,0,1,2.734,0l.316.3a8.727,8.727,0,0,1,1.316-.52V1.841A1.891,1.891,0,0,1,9.841,0h1.318a1.891,1.891,0,0,1,1.933,1.841v.425a8.719,8.719,0,0,1,1.316.52l.316-.3a2,2,0,0,1,2.734,0l.932.887a1.78,1.78,0,0,1,0,2.6l-.316.3a7.866,7.866,0,0,1,.546,1.254h.446A1.891,1.891,0,0,1,21,9.372v1.255a1.891,1.891,0,0,1-1.933,1.841h-.446a7.867,7.867,0,0,1-.546,1.254l.316.3a1.78,1.78,0,0,1,0,2.6l-.932.887a2,2,0,0,1-2.734,0l-.316-.3a8.727,8.727,0,0,1-1.316.52v.425A1.891,1.891,0,0,1,11.159,20ZM6.8,15.983a7.457,7.457,0,0,0,1.88.743.592.592,0,0,1,.462.567v.865a.687.687,0,0,0,.7.669h1.318a.687.687,0,0,0,.7-.669v-.865a.592.592,0,0,1,.462-.567,7.457,7.457,0,0,0,1.88-.743.638.638,0,0,1,.748.09l.643.613a.728.728,0,0,0,.994,0l.932-.888a.647.647,0,0,0,0-.946l-.644-.613a.565.565,0,0,1-.095-.713,6.728,6.728,0,0,0,.78-1.79.611.611,0,0,1,.6-.439h.908a.687.687,0,0,0,.7-.669V9.372a.687.687,0,0,0-.7-.669h-.908a.611.611,0,0,1-.6-.439,6.729,6.729,0,0,0-.78-1.79.565.565,0,0,1,.095-.713l.643-.613a.647.647,0,0,0,0-.946l-.932-.888a.728.728,0,0,0-.994,0l-.644.613a.638.638,0,0,1-.748.09,7.457,7.457,0,0,0-1.88-.743.592.592,0,0,1-.462-.567V1.841a.687.687,0,0,0-.7-.669H9.841a.687.687,0,0,0-.7.669v.865a.592.592,0,0,1-.462.567,7.457,7.457,0,0,0-1.88.743.639.639,0,0,1-.748-.09l-.643-.613a.728.728,0,0,0-.994,0L3.48,4.2a.647.647,0,0,0,0,.946l.644.613a.565.565,0,0,1,.095.713,6.728,6.728,0,0,0-.78,1.79.611.611,0,0,1-.6.439H1.933a.687.687,0,0,0-.7.669v1.255a.687.687,0,0,0,.7.669h.908a.611.611,0,0,1,.6.439,6.729,6.729,0,0,0,.78,1.79.565.565,0,0,1-.095.713l-.643.613a.647.647,0,0,0,0,.946l.932.888a.728.728,0,0,0,.994,0l.644-.613a.641.641,0,0,1,.748-.09Z" transform="translate(0 0)" fill="#fff"/>
    <path id="Path_15263" data-name="Path 15263" d="M149.145,153.69a4.545,4.545,0,1,1,4.545-4.545A4.55,4.55,0,0,1,149.145,153.69Zm0-7.866a3.321,3.321,0,1,0,3.321,3.321A3.325,3.325,0,0,0,149.145,145.824Z" transform="translate(-138.645 -139.145)" fill="#fff"/>
  </g>
</svg>
