<svg xmlns="http://www.w3.org/2000/svg" width="20" height="17" viewBox="0 0 20 17">
  <g id="ic_travellers-inactive" transform="translate(-103.601 -78.116)">
    <path id="Path_25374" data-name="Path 25374" d="M115.422,79.754a4.543,4.543,0,0,1,4.431,4.634,8.7,8.7,0,0,1-1.052,4.038,5.837,5.837,0,0,1-.716,1.024,1.489,1.489,0,0,0,.084.349c.041.1.056.1.063.1.407.161,1.6.267,2.734.637a3.567,3.567,0,0,1,2.625,2.628.489.489,0,0,1-.14.452,11.839,11.839,0,0,1-16.061,0h0a.487.487,0,0,1-.149-.375,9.115,9.115,0,0,1-3.491-2.055.489.489,0,0,1-.139-.452,2.94,2.94,0,0,1,2.151-2.161c.913-.3,1.877-.388,2.169-.5h0s0,.009.027-.041a.784.784,0,0,0,.051-.164,4.729,4.729,0,0,1-.577-.825,7,7,0,0,1-.849-3.26,3.709,3.709,0,0,1,3.617-3.783,3.516,3.516,0,0,1,2.328.888,4.3,4.3,0,0,1,2.894-1.128Zm0,.951a3.6,3.6,0,0,0-3.524,3.683,7.909,7.909,0,0,0,.929,3.56,2.739,2.739,0,0,0,5.187,0,7.911,7.911,0,0,0,.929-3.56,3.6,3.6,0,0,0-3.521-3.683Zm-5.222.24a2.764,2.764,0,0,0-2.708,2.832,6.21,6.21,0,0,0,.726,2.782,2.329,2.329,0,0,0,1.982,1.429,1.883,1.883,0,0,0,1.363-.6,8.711,8.711,0,0,1-.574-3,4.745,4.745,0,0,1,.914-2.813,2.62,2.62,0,0,0-1.7-.63Zm1.763,7.336a2.759,2.759,0,0,1-1.763.658,2.659,2.659,0,0,1-1.456-.436,1,1,0,0,1-.49.452h0c-.606.241-1.447.271-2.221.523a2.022,2.022,0,0,0-1.461,1.193,8.242,8.242,0,0,0,2.965,1.667,3.855,3.855,0,0,1,2.34-1.805c1.131-.37,2.327-.476,2.733-.637h0c.036-.014.055-.025.1-.111a1.2,1.2,0,0,0,.086-.3,5.8,5.8,0,0,1-.752-1.063q-.04-.072-.079-.146Zm5.356,1.861a3.232,3.232,0,0,1-3.774.016c-.009.021-.019.042-.029.063a1.146,1.146,0,0,1-.584.566c-.721.286-1.794.331-2.784.655a2.641,2.641,0,0,0-1.94,1.658,11.019,11.019,0,0,0,14.426,0,2.638,2.638,0,0,0-1.94-1.658c-.991-.324-2.064-.369-2.785-.655a1.087,1.087,0,0,1-.571-.6l-.019-.045Z" transform="translate(0 -1.638)" fill="#fff" fill-rule="evenodd"/>
  </g>
</svg>
