<svg id="ic_completed" xmlns="http://www.w3.org/2000/svg" width="69" height="69" viewBox="0 0 69 69">
  <rect id="Rectangle_2466" data-name="Rectangle 2466" width="69" height="69" rx="34.5" fill="#01b22a"/>
  <g id="noun-complete-3202980" transform="translate(-96.039 4.856)">
    <path id="Path_25331" data-name="Path 25331" d="M139.654,21.042a1.489,1.489,0,0,0-1.817,2.359,10.969,10.969,0,0,1,4.274,8.727A11.072,11.072,0,1,1,130.164,21.11l-1.38,1.381a1.486,1.486,0,0,0,0,2.089,1.461,1.461,0,0,0,2.086,0l3.938-3.942a1.465,1.465,0,0,0,0-2.089l-3.937-3.976a1.476,1.476,0,0,0-2.086,2.089l1.447,1.449a13.983,13.983,0,1,0,9.423,2.931Z" transform="translate(0)" fill="#fff"/>
    <path id="Path_25332" data-name="Path 25332" d="M248.845,240.95l-2.45-2.45a1.557,1.557,0,0,0-2.2,2.2l3.551,3.551a1.543,1.543,0,0,0,2.2,0l6.818-6.818a1.557,1.557,0,1,0-2.2-2.2Z" transform="translate(-119.44 -207.66)" fill="#fff"/>
  </g>
</svg>
