<svg id="ic_ongoing" xmlns="http://www.w3.org/2000/svg" width="69" height="69" viewBox="0 0 69 69">
  <rect id="Rectangle_2466" data-name="Rectangle 2466" width="69" height="69" rx="34.5" fill="#0b9dd8"/>
  <path id="direction" d="M35.759,23.995a1.6,1.6,0,1,1-1.6,1.6A1.6,1.6,0,0,1,35.759,23.995ZM24.534,35.218a1.6,1.6,0,1,0,1.6-1.6A1.6,1.6,0,0,0,24.534,35.218Zm3.541-6.08a1.6,1.6,0,1,0,1.6-1.6A1.6,1.6,0,0,0,28.075,29.139Zm23.653.486a15.879,15.879,0,0,0-8.256-5.571,1.6,1.6,0,1,0-.861,3.089,12.652,12.652,0,0,1,6.577,4.44,12.424,12.424,0,0,1,2.6,7.652,12.562,12.562,0,0,1-22.612,7.533l-.9-.2v4.006A15.766,15.766,0,0,0,51.729,29.625ZM27.207,52.856V45.234l7.669,1.7a1.6,1.6,0,1,0,.7-3.131L25.951,41.67A1.6,1.6,0,0,0,24,43.236v9.621a1.6,1.6,0,0,0,3.207,0Z" transform="translate(-5 -4.994)" fill="#fff"/>
</svg>
