<svg id="ic_pending" xmlns="http://www.w3.org/2000/svg" width="69" height="69" viewBox="0 0 69 69">
  <rect id="Rectangle_2466" data-name="Rectangle 2466" width="69" height="69" rx="34.5" fill="#ef6000"/>
  <g id="noun-pending-3676665" transform="translate(-96.073 1.5)">
    <path id="Path_25371" data-name="Path 25371" d="M144.012,22.047a3.912,3.912,0,0,0-.862-3.2,3.851,3.851,0,0,0-2.891-1.343H120.887a3.731,3.731,0,0,0-2.891,1.4,4.188,4.188,0,0,0-.862,3.2c.862,5.167,3.651,9.041,7.607,10.953C120.785,34.963,118,38.838,117.134,44a3.911,3.911,0,0,0,.862,3.2,3.99,3.99,0,0,0,2.891,1.292h19.372a3.731,3.731,0,0,0,2.891-1.4,4.188,4.188,0,0,0,.862-3.2c-.862-5.167-3.651-9.041-7.607-10.953,3.956-1.86,6.745-5.735,7.607-10.9Zm-2.536,22.32a1.379,1.379,0,0,1-.3,1.085,1.24,1.24,0,0,1-.964.465H120.887a1.24,1.24,0,0,1-.964-.465,1.379,1.379,0,0,1-.3-1.085c1.014-6.2,5.223-10.075,10.9-10.075s9.94,3.875,10.954,10.075Zm-10.9-12.659c-5.68,0-9.889-3.875-10.9-10.075a1.379,1.379,0,0,1,.3-1.085,1.078,1.078,0,0,1,.913-.465h19.372a1.24,1.24,0,0,1,.964.465,1.379,1.379,0,0,1,.3,1.085c-1.065,6.2-5.274,10.075-10.954,10.075Zm6.39-6.1a7.9,7.9,0,0,1-12.779,0,1.713,1.713,0,0,1,1.42-2.687h9.991a1.7,1.7,0,0,1,1.369,2.687Z" transform="translate(0 0)" fill="#fff"/>
  </g>
</svg>
