<svg xmlns="http://www.w3.org/2000/svg" width="30" height="30" viewBox="0 0 30 30">
  <g id="ic_previous" transform="translate(-313 -129)" opacity="0.5">
    <rect id="Rectangle_16909" data-name="Rectangle 16909" width="30" height="30" rx="5" transform="translate(313 129)" fill="#e6e6e6"/>
    <path id="Path_9" data-name="Path 9" d="M8.81,8.979,1.1.215a.592.592,0,0,0-.914,0,.811.811,0,0,0,0,1.042L7.439,9.5.19,17.742a.811.811,0,0,0,0,1.041A.607.607,0,0,0,.646,19a.606.606,0,0,0,.456-.215L8.81,10.021a.811.811,0,0,0,0-1.043Z" transform="translate(332 154) rotate(180)"/>
  </g>
</svg>
