<svg xmlns="http://www.w3.org/2000/svg" width="31" height="31" viewBox="0 0 31 31">
  <g id="ic_hide-password" transform="translate(-528 -453.734)">
    <rect id="Rectangle_16947" data-name="Rectangle 16947" width="31" height="31" transform="translate(528 453.734)" fill="none"/>
    <g id="noun-eye-1192770" transform="translate(447.161 350.735)" opacity="0.7">
      <path id="Path_14787" data-name="Path 14787" d="M96.839,126a14.226,14.226,0,0,1-8.465-3.337,20.836,20.836,0,0,1-3.421-3.313.594.594,0,0,1,0-.7,22.161,22.161,0,0,1,3.421-3.313A14.225,14.225,0,0,1,96.839,112a14.226,14.226,0,0,1,8.465,3.337,20.836,20.836,0,0,1,3.421,3.313.594.594,0,0,1,0,.7,22.16,22.16,0,0,1-3.421,3.313A14.225,14.225,0,0,1,96.839,126ZM86.27,119c1.14,1.307,5.5,5.833,10.568,5.833s9.428-4.527,10.568-5.833c-1.14-1.307-5.5-5.833-10.568-5.833S87.411,117.692,86.27,119Z" transform="translate(0)"/>
      <path id="Path_14788" data-name="Path 14788" d="M247.777,182.144a4.295,4.295,0,1,1,4.737-4.272A4.529,4.529,0,0,1,247.777,182.144Z" transform="translate(-150.938 -58.873)"/>
    </g>
    <line id="Line_1251" data-name="Line 1251" x1="22" y2="22" transform="translate(533.5 458.234)" fill="none" stroke="#484848" stroke-linecap="round" stroke-width="1"/>
  </g>
</svg>
