<svg xmlns="http://www.w3.org/2000/svg" width="22" height="17" viewBox="0 0 22 17">
  <g id="ic_image-upload" transform="translate(-90.301 -69.301)">
    <path id="Path_25533" data-name="Path 25533" d="M109.158,69.3H93.444A3.074,3.074,0,0,0,90.3,72.294V83.308A3.074,3.074,0,0,0,93.444,86.3h15.714a3.074,3.074,0,0,0,3.143-2.993V72.294A3.074,3.074,0,0,0,109.158,69.3ZM93.444,70.769h15.714a1.566,1.566,0,0,1,1.6,1.525v7.618l-3.037-3.746a.781.781,0,0,0-.517-.28.8.8,0,0,0-.573.154l-3.395,2.571-4.591-5.583a.8.8,0,0,0-1.077-.129l-5.727,4.2V72.294a1.566,1.566,0,0,1,1.6-1.525Zm15.714,14.063H93.444a1.566,1.566,0,0,1-1.6-1.525V78.953L97.9,74.506l4.6,5.592a.782.782,0,0,0,.517.277.8.8,0,0,0,.57-.155l3.391-2.567,3.779,4.662v.992a1.566,1.566,0,0,1-1.6,1.525Z" transform="translate(0 0)"/>
  </g>
</svg>
