<svg xmlns="http://www.w3.org/2000/svg" width="18.5" height="25.5" viewBox="0 0 18.5 25.5">
  <path id="ic_location" d="M165.4,23.73a.787.787,0,0,0,1.187,0,53.028,53.028,0,0,0,5.089-7.244c1.551-2.71,2.817-5.727,2.817-8.236a8.5,8.5,0,0,0-17,0c0,2.509,1.267,5.527,2.817,8.236A53.061,53.061,0,0,0,165.4,23.73ZM166,3.75a4.572,4.572,0,0,0-4.636,4.5,4.638,4.638,0,0,0,9.273,0A4.572,4.572,0,0,0,166,3.75Z" transform="translate(-156.747 0.75)" fill="#fff" stroke="#131313" stroke-width="1.5" fill-rule="evenodd"/>
</svg>
