<svg xmlns="http://www.w3.org/2000/svg" width="22" height="22" viewBox="0 0 22 22">
  <g id="ic_link" transform="translate(-99.161 -29.172)">
    <path id="Path_25534" data-name="Path 25534" d="M103.285,189.628a.774.774,0,1,1,1.094,1.094l-2.644,2.645a3.5,3.5,0,1,0,4.95,4.95l5.289-5.289a3.5,3.5,0,0,0,0-4.95l-1.133-1.134a.774.774,0,0,1,1.095-1.094l1.133,1.133a5.048,5.048,0,0,1,0,7.139l-5.29,5.29a5.048,5.048,0,1,1-7.139-7.139Z" transform="translate(0 -149.718)" fill-rule="evenodd"/>
    <path id="Path_25535" data-name="Path 25535" d="M264.189,40.435a.774.774,0,0,1-1.094-1.094l2.646-2.647a3.5,3.5,0,0,0-4.95-4.95L255.5,37.035a3.5,3.5,0,0,0,0,4.95l1.133,1.134a.774.774,0,0,1-1.095,1.094l-1.133-1.133a5.047,5.047,0,0,1,0-7.139l5.291-5.292a5.049,5.049,0,0,1,7.14,7.14Z" transform="translate(-147.153)" fill-rule="evenodd"/>
  </g>
</svg>
