<svg xmlns="http://www.w3.org/2000/svg" width="162" height="80" viewBox="0 0 162 80">
  <g id="ic_upload" transform="translate(-428 -713)">
    <rect id="af0370505261a17468b40c2d1c8aaa6c" width="162" height="80" rx="15" transform="translate(428 713)" fill="#efefef"/>
    <g id="Group_36266" data-name="Group 36266" transform="translate(492 737.5)">
      <g id="Upload">
        <g id="Group_33766" data-name="Group 33766" transform="translate(0 0)">
          <path id="Path_25540" data-name="Path 25540" d="M31.267,13.843h-.6A10.538,10.538,0,0,0,18.985,7.158a10.335,10.335,0,0,0-8.729,10.105v.222a6.849,6.849,0,0,0-5.177,7.482,6.949,6.949,0,0,0,6.928,5.979h7.879v-1.71H12.007A5.124,5.124,0,0,1,11.3,19.025a.86.86,0,0,0,.753-.906c0-.274-.044-.547-.044-.855A8.623,8.623,0,0,1,19.6,8.82a8.755,8.755,0,0,1,9.6,6.2.876.876,0,0,0,.981.624,7.372,7.372,0,0,1,1.086-.094,6.843,6.843,0,1,1,0,13.683H25.139v1.71h6.128a8.554,8.554,0,1,0,0-17.1Z" transform="translate(-5.022 -7.009)"/>
          <path id="Path_25541" data-name="Path 25541" d="M30.416,28.572l1.254-1.254-7.063-7.063a.883.883,0,0,0-1.254,0L16.29,27.318l1.254,1.254L23.1,23.01V40.3h1.766V23.01Z" transform="translate(-6.489 -9.305)"/>
        </g>
      </g>
    </g>
  </g>
</svg>
