<svg xmlns="http://www.w3.org/2000/svg" width="292" height="292" viewBox="0 0 292 292">
  <g id="ic_chats-graphics" transform="translate(-941 -351)">
    <circle id="ic_user_img" cx="146" cy="146" r="146" transform="translate(941 351)" fill="#0b9dd8"/>
    <g id="noun-chats-1180678" transform="translate(837.316 294.097)">
      <path id="Path_25384" data-name="Path 25384" d="M221.874,210.448H278.65a3.024,3.024,0,1,0,0-6.048H221.874a3.024,3.024,0,1,0,0,6.048Z" transform="translate(-24.905 -33.501)" fill="#fff"/>
      <path id="Path_25385" data-name="Path 25385" d="M244.055,233.41H221.872a3.024,3.024,0,0,0,0,6.048h22.183a3.024,3.024,0,0,0,0-6.048Z" transform="translate(-24.903 -50.031)" fill="#fff"/>
      <path id="Path_25386" data-name="Path 25386" d="M309.8,183.387H275.154V161.244a15.576,15.576,0,0,0-15.566-15.638H190.569A15.576,15.576,0,0,0,175,161.2v59.276a3.007,3.007,0,0,0,4.306,2.723l18.211-8.651h27.691v22.119a15.579,15.579,0,0,0,15.566,15.591h62.068l18.211,8.651v0a3.006,3.006,0,0,0,4.306-2.723V198.956A15.58,15.58,0,0,0,309.8,183.388Zm-113.07,25.157h0a3.021,3.021,0,0,0-1.3.289l-14.435,6.915,0-54.5a9.63,9.63,0,0,1,9.622-9.639h69.045a9.633,9.633,0,0,1,9.624,9.639v22.119H240.777a15.579,15.579,0,0,0-15.566,15.591v9.638Zm122.62,44.892-14.435-6.915a2.991,2.991,0,0,0-1.3-.289H240.776a9.633,9.633,0,0,1-9.624-9.639V198.955a9.633,9.633,0,0,1,9.624-9.639h69.045a9.63,9.63,0,0,1,9.622,9.639Z" transform="translate(0)" fill="#fff"/>
      <path id="Path_25387" data-name="Path 25387" d="M395.52,291.82H338.744a3.024,3.024,0,1,0,0,6.048H395.52a3.024,3.024,0,1,0,0-6.048Z" transform="translate(-92.125 -83.314)" fill="#fff"/>
      <path id="Path_25388" data-name="Path 25388" d="M367.122,321.05H338.746a3.024,3.024,0,0,0,0,6.048h28.376a3.024,3.024,0,0,0,0-6.048Z" transform="translate(-91.787 -99.969)" fill="#fff"/>
    </g>
  </g>
</svg>
